<?xml version="1.0" encoding="utf-8"?>
<!-- Generator: Adobe Illustrator 18.1.0, SVG Export Plug-In . SVG Version: 6.00 Build 0)  -->
<svg version="1.1" id="Calque_1" xmlns="http://www.w3.org/2000/svg" xmlns:xlink="http://www.w3.org/1999/xlink" x="0px" y="0px"
	 viewBox="0 0 453.5 198.4" enable-background="new 0 0 453.5 198.4" xml:space="preserve">
<g>
	<defs>
		<rect id="SVGID_1_" y="0" width="453.5" height="198.4"/>
	</defs>
	<clipPath id="SVGID_2_">
		<use xlink:href="#SVGID_1_"  overflow="visible"/>
	</clipPath>
	<path clip-path="url(#SVGID_2_)" fill-rule="evenodd" clip-rule="evenodd" d="M103.3,181.4"/>
	<path clip-path="url(#SVGID_2_)" fill-rule="evenodd" clip-rule="evenodd" d="M102.3,181.4c-9.4,0-3.7-29.8-4.9-41.6
		c-4.9-0.7-1.8-12.3-1.9-15.8c-0.2-9.3-1.8-18.6-3-27.9c-1-7.6-2.6-15.9-1.4-23.5c0.3-2.1,1.1-4.7,0.5-6.8c-0.7-2.7-2.9-5.2-3.7-8.3
		c-1.2-5.2-3.6,0.4-4.6,2.7c-0.7,1.6-1,3.3-1.5,5c-0.7,2.9-3.2,5.5-3.5,8.3c-0.3,2.5,0.2,5,0.4,7.5c0.2,3.1-0.7,2.3-2.5,4
		c-3.5,3.4,1.9,10.5-1,14.3c-1.4,1.8-2.8,2-3.1,4.6c-0.3,2.2,0,4.4,0.2,6.6c0.5,6.1-1.8,11.6-7.3,14.8c-1.5,0.9-6,2-5.8-1
		c0.2-3.2-0.7-4.2-2.8-6.7c-1.5-1.7-2.5-5.6-0.5-7.4c3.3-3,2.1-2.7,0.8-7c-1.9-6.5-0.8-13.7-0.8-20.4c0-4.5,1.5-17.4-6.4-14.1
		c-3,1.3-2.8,9.6-3.1,12.3c-0.5,4.3,0,8.6-0.2,12.8c0,1.2-1.1,1.5-1.9,2c-1.4,0.9-1.3,2.8-1.3,4.2c0,7.5-4.2,12.9-3.8,20.5
		c0.2,3.5,0.7,7,0.1,10.4c-0.4,2.7-2.2,4.9-2.6,7.6c-0.5,4.4,1.1,9.9-1,13.9c-3.4,6.4-10.4-2.7-12.9-5.1c-6.2-6,0.6-16.5,3.3-23.1
		c2.6-6.3,8.1-16.8,7-23.8c-0.5-3-0.2-3.2,1.6-5.2c1.9-2.2,1.2-6.2,1.1-8.9c0-1-0.5-3.6,0.7-4.3c1.1-0.6,2.1-0.4,2.7-1.8
		c1-2.7,0-5.7-0.1-8.4c-0.1-3.7-0.4-4.1,2.6-6.2c3.5-2.4-1.4-8.9,1.9-11.1c2.6-1.7,0.7-6.6,2.1-9.2c1.9-3.5,2.3-6.2,2.1-10.3
		c-0.2-5,3.4-14.2,9.5-14.9c7.4-0.8,5.1,9.6,4.8,13.8c-0.2,2.6-0.5,5.7,0.8,8c1.3,2.3,2.8,2.1,2.9,5.3c0.1,2.5-0.3,4.9-0.3,7.4
		c0,3.2-3.1,5.2-3.1,8.5c6,0.9,0.6,8,3.8,9.2c3-3.9,7-9.4,8.2-14.2c0.9-3.5,0.3-7.3,0.9-10.9c0.5-2.9,3-2.9,3.2-6.2
		c0.3-4-0.5-7.5,0.8-11.4c1.8-5.6,5-10.7,7.3-16c2.1-4.9,6.4-4.8,9.1-0.1c2.7,4.7,2.1,11,3.1,16.2c1.3,7.1,2.3,13.8,2.4,21.1
		c0.2,13.9-0.6,28,1,41.9c0.7,6.7,2.4,13.3,2.5,20.1c0,2.1-0.3,4.3,0,6.3c0.3,2.4,2.5,2.1,3.2,3.9c0.8,2.1,0.2,5.2,0.2,7.4
		c0,4.2,0,8.4,0,12.6c0,6.5,1.5,12.4,4,18.3c2,5,5.3,12.8,1.2,17.6c-1.3,1.6-3.4,2.2-5.4,2.4c-1,0.1-2.1,0.1-3.1,0.1"/>
	<path clip-path="url(#SVGID_2_)" d="M316.7,90c-2.1-4.2,2.7-4.4,2.7-7.4c-2-0.7-2.6-2.9-5.1-2.3c0.3-1.5,1.4-1.5,2.6-1.5
		c-0.1-3.4,0-6.7-1.1-10c-0.8,0.3-1.4,0.1-1.6-0.5c3.3-2.8-3.9-11.7-6.6-13.9c-0.2,0.1-0.6,0.2-1.2,0.5c0.9-2.1,2.2-0.9,3.4-0.5
		c-0.7-1.4-1.2-2.5-2-4.1c-0.8,1.1-1.4,1.9-2,2.8c-0.9-0.6-1.9-1.2-3-1.5c-2.3-1.1-0.2-1.9-1.1-3.4c-1.8,0.5-8,6.1-6.1-0.1
		c-0.1,0-0.3-0.1-0.4-0.1c-0.6,0.7-1.1,1.5-1.7,2.2c-2-4.4-7.8,0.3-10.6-1.7c0.1-0.3,0.1-0.7,0.2-1c-0.8,0.1-1.5,0.2-2.2,0.2
		c0-0.1-0.1-0.1-0.1-0.2c0.9-0.7,1.9-1.5,2.8-2.1c-2.7-2.2-5-0.7-8.2-2.6c-0.4,0.8-0.6,1.3-0.9,1.9c-0.3-0.3-0.4-0.6-0.7-0.9
		c-0.8,1.7-3.1,0.7-4.2,2.5c0.7,0.1,1.1,0.2,1.6,0.3c-0.3,2.3-4.1,1.5-6.1,1.8c-0.1,1.4,1.8,2,1.7,2.4c-2.7-0.4-4.3,0.5-7.4,0
		c0.4,0.5,0.7,0.9,1.1,1.5c-0.9,0.1-1.6,0.3-2.2,0.4c0,0.4-0.1,0.8-0.1,1.3c-0.8-0.5-1.5-0.9-2.5-1.5c0.4,1.7,0.1,2.9-1.1,4.2
		c0.4,0.2,0.7,0.3,1.1,0.5c0,0.6,0.1,1.2,0.1,2c0.8-0.9,1.4-1.6,2.4-0.6c-2.1,2.4-3.5,1.4-5.9,0c0.2,0.6,0.4,1.3,0.6,2.1
		c-0.5,0.1-1,0.1-1.3,0.1c0.3,1.2,0,2.6-0.1,3.8c1.5-0.3,1.5-0.1,2.4,1.2c0.1-0.2,0.2-0.3,0.4-0.6c0.1,0.7,0.5,1.5,0.1,2.1
		c-1-0.6-2.1-1.2-3.2-1.8c-0.3,0.7-0.5,1.4-0.9,2.2c1.3,0.3,2.4,0.8,2.5,2.4c-1.4-0.7-2.8-1.4-4.1-2.1c-0.1,0.1-0.3,0.2-0.4,0.4
		c1.8,0.8,2.7,1.9,2,3.8c0.5,0,0.9-0.1,1.3-0.1c0.1,0.1,0.2,0.2,0.2,0.3c-1.3,1.2-2.7,2.5-4.2,3.9c1.3-0.2,2.2-0.3,3.4-0.4
		c-0.4,0.7-0.7,1.2-0.9,1.6c0.5,0.2,1,0.4,1.5,0.6c0,0.1-13.4,9.7-5.9,11.6c-0.6,0.2-1,0.4-1.3,0.5c0.7,1.8,0.9,3.9,0.7,5.8
		c-0.1,0.7-1.6,3.6-1.5,3.8c0.7-0.1,1.5-0.2,2.5-0.3c-1.8,2.7-2.1,6.6-1.4,10.5c0.3,0,0.9-0.1,1.5-0.1c0.2,0.6-0.9,1.5-1.3,1.9
		c1,0.1,1.8,0.2,2.4,0.3c0.4,1.8,0.8,3.6,1.3,5.4c1.4-0.9,2.1-0.7,3.1,0.5c1.6,2.1,3.4,2.2,5.9,1.7c-0.3,1.2-0.5,2.3-0.8,3.6h1.6
		c0.1-0.7,0.2-1.3,0.3-1.9c0.1,0,0.2-0.1,0.3-0.1c0.7,1.3,1.3,2.5,2,3.7c0.6-0.2,1.3-0.5,2-0.7c-0.1,0.7-0.1,1.1-0.2,1.6
		c1.8-0.1,1.8-0.1,2.7,2c0.7-0.5,1.4-0.9,2.2-1.4c-0.3-0.8-1.3-0.2-1.6-1c1.1-0.5,2.2-0.9,3.4-1.4c-0.2,3.2,0.6,4.1,2.9,3.7
		c-0.1-1.2,0.6-1.9,1.8-2c2.7-0.2,2.8,1,4.7-1.5c2.6,4.1,5.8,4.3,10.4,4.6c-0.5-1.1-0.8-2-1.3-3.1c0.6,0.1,0.9,0.2,1.2,0.3
		c0.2-0.5,0.4-0.9,0.5-1.3c2.6,3.3,2.6,4.3,5-0.4c-0.8-0.5-1.3-0.9-1.8-1.3l0.1-0.2c0.8,0.2,1.5,0.4,2.4,0.6
		c-0.1-0.8-0.2-1.4-0.4-2.5c0.9,0.6,1.5,1,2.1,1.5c-0.6-2.2,0.1-3,2.8-3.4c-0.4,0.6-0.7,1.1-1.1,1.7c3.8,0,3-2,3-5.4
		c2.1,0,7.4-7,4.6-9c0.2,0.1,0.4,0.3,0.7,0.4c0.7-0.8,1.5-1.6,2.2-2.4c0.6,0.3,1.7,0.8,2.7,1.3c0.5-0.9-1.2-4.9-2.2-5.6
		c0.1-0.1,0.2-0.2,0.3-0.3c1.2,0.4,2.5,0.7,3.5,1c0.1,0.8,0.1,1.3,0.1,2.1c1.9-2.5-0.3-3.6-1-6.3c4.1-0.8,0.6-1.2,2.4-3.6
		c0.8-1.2,2.8-1.2,4.1-1.3C318.8,91,317,90.6,316.7,90C314.6,85.8,317,90.6,316.7,90 M246.6,108.7l-0.3,0.1c-0.3-0.6-0.6-1.2-1-1.9
		c0.6-0.4,1.1-0.7,1.8-1.1C246.9,106.9,246.7,107.8,246.6,108.7 M248.5,80.5c0.2-0.3,0.7-0.3,1.1-0.3c-0.6,0.7-0.9,1.5-0.6,2.4
		c0.1-0.4-0.9-0.4-0.1,0.3C248,82.1,247.9,81.4,248.5,80.5C248.7,80.2,247.8,81.3,248.5,80.5 M250.8,114.6c-2.3,0.4-2.7,0-2.3-2.7
		c1.7,0.5,3.2,1,4.8,1.4c0,0.2,0,0.4,0,0.6C252.5,114.1,251.6,114.4,250.8,114.6C248.5,115,251.6,114.4,250.8,114.6 M259.1,57.3
		c-0.4-0.6-0.8-1.1-1.3-1.7C259.3,55.2,259.4,55.4,259.1,57.3 M261.9,57.5c-0.5-0.7-0.9-1.4-1.4-2.1
		C262.3,55.3,262.7,55.8,261.9,57.5 M266.5,123.7c-0.5,0.1-1.1,0.2-1.8,0.3c0-0.5,0-0.9-0.1-1.6c0.8,0.4,1.3,0.7,1.9,1
		C266.5,123.5,266.5,123.6,266.5,123.7C266,123.8,266.5,123.6,266.5,123.7 M276,47.2c-0.5-0.6-1.1-1.2-1.6-1.8
		c0.1-0.1,0.3-0.2,0.4-0.3c0.5,0.6,1.1,1.2,1.6,1.8C276.3,46.9,276.2,47,276,47.2C275.5,46.5,276.2,47,276,47.2 M287.8,50.7
		c0.3-0.5,0.4-1,0.7-1.5c0.3,0.6,0.6,1,0.9,1.5H287.8z M302.9,112.5c1.3-0.4,2,0,2.1,1.4C303.6,114.1,303.1,113.8,302.9,112.5
		 M313.4,86.8v-1.6c0.7,0.2,1.3,0.3,2,0.5c0,0.1,0,0.2,0.1,0.3C314.8,86.3,314.2,86.6,313.4,86.8 M315.8,83.7
		c-0.5-0.1-0.9-0.5-1.4-0.8c0-0.1,0.1-0.2,0.1-0.3h2.2C316.3,83.1,316,83.7,315.8,83.7C315.3,83.6,316,83.7,315.8,83.7"/>
	<path clip-path="url(#SVGID_2_)" fill-rule="evenodd" clip-rule="evenodd" d="M378,80.3c0.1-4.3-4.7-9.7-7.4-3.6
		c-1.6,3.5-0.1,11-3.6,12.2c-1.6,0.5-0.6,3.4-0.7,4.6c-0.2,2.7-2.9,3.3-3.3,6.1c-0.3,2.5,0.3,5.1-0.1,7.6c-0.4,2.5-3.2,3.3-3,6.1
		c0.3,3.6,0.7,7.7-4,6.9c-3.5-0.6-7.8-1.9-10.3-4.4c-3.1-3.1,4.1-10.9,5.8-13.7c1.7-2.9,3.5-5.8,5.1-8.8c0.4-1,0.5-2.1,0.1-3.1
		c-0.3-2.4,1.6-1.5,2.6-2.9c1.1-1.6-0.2-3.8,0.2-5.6c0.5-1.9,3.3-1.2,3.2-3.4c-0.1-1.3-0.9-3.6,0-4.8c1.1-1.5,3.4-1.2,3.3-3.5
		c0-1.4-0.7-3.5,1-4.2c2.1-0.8-0.1-4.1,2-5.1c3.7-1.8,0.7-7.1,3.7-9.7c2.4-2.2,8.2-5.8,11.1-2.3c2.9,3.5-2,8.5,2.3,11.2
		c1.8,1.1,1.1,3.9,1.1,5.6c0,3.8-2.1,2.2-2.9,5c4.3,0.8,1.3,4,3.5,5.3c2.5-2,7.7-5.7,8.4-9c0.5-2.5-1.1-4.9,1.8-5.9
		c2-0.7,1.1-6.1,2.1-7.8c1.4-2.4,3.3-4.9,4.9-7.1c5-6.9,11.4-3.1,12.6,4.5c0.7,4.3,2.3,7.8,2.5,12.3c0.2,4.9,0.1,9.8,0.3,14.6
		c0.2,4.5,0.5,9.1,2,13.3c0.6,1.8,1.3,3.5,1.4,5.4c0,1.3-0.7,3.3,0.1,4.5c2,2.9,2.8,0.9,2.8,5.6c0,3.9-1.1,9.5,0.6,13.1
		c1.9,3.9,9.2,9.7,4.2,14.1c-3.4,3-10.6,2.2-13-1.7c-2.2-3.5-1.1-10-1.4-13.9c-0.3-4-3.1-5.4-2.9-9.1c0.3-7.4-1-13.8-2.6-21.1
		c-1-4.6-0.9-8.5-0.6-13.1c0.1-1.4-2.7-6.4-4-6.8c-2.7-0.7-4.3,3.9-5.1,5.5c-0.8,1.6-2.1,2.8-2.4,4.6c-0.2,1.3,0.4,3.2-0.3,4.4
		c-1.5,2.4-3.4,0.4-2.8,4.5c0.7,5-2,3.1-3.2,6.5c-0.9,2.6,1.6,5.7-0.5,8.1c-2.1,2.4-5.8,4.2-9.1,4.2c-1.9,0-4.2-3.8-5.5-5.2
		c-0.9-1-1.2-2.3-0.3-3.5c1.8-2.4,2.2-1.6,2.5-1.8C376.5,90.4,377.9,85,378,80.3"/>
	<path clip-path="url(#SVGID_2_)" fill-rule="evenodd" clip-rule="evenodd" d="M200.1,49.6c6.9-6.9,22.5-18.8,32.4-10.9
		c5.2,4.1,1.5,7-3.3,8.2c-7.3,1.9-13.5,3.4-19.5,8.4c-3.5,2.9-6.6,6.1-9.8,9.3c-0.9,0.9-2.6,1.8-2.9,3.2c-0.4,1.4,0.5,2.6-0.8,3.8
		c-0.9,0.8-2.3,1.4-2.9,2.5c-0.6,1.1,0.7,2.4-0.2,3.4c-0.6,0.7-1.7,0.6-2.4,1.2c-1.2,1,0.4,4.7,0.3,6.6c-0.1,1.1-1.5,1.2-2.3,1.5
		c-1.6,0.7-1,3.2-0.8,4.5c0.2,2.1,2,1.3,2.9,2.6c0.8,1.2,0.4,3.1,0.3,4.4c-0.6,6,8.3,10.5,13.4,7.8c4-2.1,7.4-5.3,11-8
		c2-1.6,4.2-3.1,6.5-4.1c0.4-2.7,2-1.3,3-3.1c0.5-0.9,0.1-2.5,0.1-3.5c-0.1-1.9,2.3-1.5,3.3-2.5c1-1.1,9.3-6.8,9.1-2.8
		c-0.1,2.6,0.8,11.5-1.2,13.3c-1,0.9-2.8,1-4,1.7c-2.1,1.2-3.9,3-5.9,4.4c-3.7,2.5-9.5,4.8-11,9.4c-0.7,2.2-6.3,3.4-8.2,4.3
		c-3.9,1.8-9,4.1-13.3,2.2c-3-1.3-5.7-4-8.4-5.9c-2.8-1.9-5.9-4.3-7.4-7.4c-1.1-2.3,1.6-7.1,2.2-7.5C182,80.2,187.7,61.8,200.1,49.6
		"/>
	<path clip-path="url(#SVGID_2_)" fill-rule="evenodd" clip-rule="evenodd" d="M146.4,102C146.5,102,146.5,102,146.4,102
		c0.6-6.4-2.5-10.4-5.7-15.6c-1.6-2.6-0.9-3.4-1.6-6.2c-0.4-1.8-1.6-2.1-1.7-4.5c-0.1-1.6,0.5-5.3-0.8-6.4c-0.5-0.3-1.1-0.4-1.6-0.3
		c0-2.3,0.7-4.9-2.2-5.1c0.4-2.1-0.5-3.8-1.6-5.5c-1.5-2.3-1.8-9.2-4.7-9.6c0-0.9-7.2-10.4-9.5-6.5c-2,3.4-1.3,8.8-1.3,12.6
		c0,4.9,0,9.9,0,14.8c0,3.3,0.9,8-0.2,11.1c-1.9,5.3-7.2,7.9-3.1,13.9c2.6,3.8,4.6,14.5,1.7,18.5c-1,1.3-3.3,2-3.1,4
		c0.3,3.2,2.7,2,4.3,3.8c5,5.5,9-3.6,9.4-8.1c0.3-2.9-1-2.9-1.7-5c-0.5-1.5-0.5-3.8-0.7-5.4c-0.6-5.5,4.2-8.6,9-6.1
		c6.2,3.3,7.3,10.1,8.3,16.6c0.5,3.3,6.1,10.3,9.7,5.7c2.1-2.7-1.6-8.7-2.5-11.3C146.4,106.1,145.1,103.1,146.4,102
		C146.5,102,145.1,103.1,146.4,102 M126.4,85.3c-1.9-0.6-0.9-3.9-3.4-5.1c3.3-3.5,2.2-8.8,2-13.1c1.6,0.1,2.8,5.5,3.1,6.7
		c0.6,3,2.6,4.1,2.6,6.8C130.7,84.4,131,86.7,126.4,85.3"/>
	<path clip-path="url(#SVGID_2_)" fill-rule="evenodd" clip-rule="evenodd" d="M327.5,75.9c0.2-4.4-0.3-8.7,0.2-13.1
		c0.1-1,0.3-3.4,1.4-3.8c2.8-1,0.2-4.8,2.6-5.9c3.1-1.5,8.5-1.1,9,2.8c0.5,4.5-0.5,9-0.7,13.5c-0.2,3.4-1.2,6.7-1.4,10.1
		c-0.2,2.6,0.8,10.2-1.6,11.8c-2.2,1.5-1.4,6.9-1.5,9.2c-0.2,3.7-2.2,5.4-2.6,9.1c-0.7,5.9-1.8,14.1,6.3,14.1
		c7.8,0,15.7-1.1,23.5-1.2c7.7-0.1,15.3,0.5,23,1c1.6,0.1,5,0.1,5.6,2.1c0.6,2,0.3,5.9-1.2,7.5c-1.8,1.8-5.5,1.1-7.7,1
		c-5.1-0.3-10.1-0.7-15.2-1.2c-9.8-0.9-20.2-2.5-30.1-1.4c-6.6,0.8-12,4.2-14.1-4.5c-1.7-6.9-0.7-16.5,0.9-23.4
		c1.4-6.2,1.7-11.3,1.2-17.5c-0.2-2.5-0.4-5.3,0.3-7.8c0.1-0.5,2.4-4.1,1.7-3.5C326.4,75.3,326.7,76,327.5,75.9
		C327.6,73.4,325.6,76.2,327.5,75.9"/>
	<path clip-path="url(#SVGID_2_)" fill-rule="evenodd" clip-rule="evenodd" d="M218.5,124.4c-13.7-2.2-27.6-2.1-41.5-1.6
		c-3.5,0.1-10.4,2.7-13-0.5c-2.3-2.9-1.5-8-1.1-11.4c0.2-1.8,0.6-3.7,0.7-5.6c1.5-0.4,2.1-2,2.4-3.3c0.8-3.4,0.7-6.2,0.9-9.6
		c1.6-0.4,1.4-2.9,1.6-3.6c0.6-2.1,0.6-4.4,0.6-6.6c0-5.2,0.3-10.3,0.9-15.5c0.3-2.6,3.2-13.4-1.2-13.8c-5.9-0.5-7.4-0.4-8.2,5.7
		c-4,0.9-2.5,9.9-2.6,13.2c-0.2,4-2.7,5.6-2.5,10c0.3,5.2,0.9,10.7,0.2,16c0.3,2.5,0.4,5.3-0.3,7.5c-0.3,1-1,1.8-1.8,2.4
		c-0.6,2.9-1.1,5.9-1,9.3c0.1,4.8-0.8,13.1,4,16.1c2.1,1.3,5.7-0.6,7.9-1c3-0.6,6-0.9,9-1c12.3-0.4,24.8,1.6,37,3.2
		c3.1,0.4,8.3,1.2,10.2-2.2C222.5,129.1,222.1,125,218.5,124.4"/>
	<path clip-path="url(#SVGID_2_)" fill-rule="evenodd" clip-rule="evenodd" fill="#FFFFFF" d="M246.5,111.6c1.7,0.5,3.2,1,4.8,1.4
		c0,0.2,0,0.4,0,0.6c-0.8,0.2-1.6,0.5-2.5,0.7C246.5,114.6,246.2,114.3,246.5,111.6C248.2,112.1,246.2,114.3,246.5,111.6
		C248.2,112.1,246.2,114.3,246.5,111.6"/>
	<path clip-path="url(#SVGID_2_)" fill-rule="evenodd" clip-rule="evenodd" fill="#FFFFFF" d="M243.4,106.6c0.6-0.4,1.1-0.7,1.8-1.1
		c-0.2,1.1-0.4,2-0.5,2.9c-0.1,0-0.2,0-0.3,0.1C244,107.9,243.7,107.3,243.4,106.6C244,106.2,243.7,107.3,243.4,106.6
		C244,106.2,243.7,107.3,243.4,106.6"/>
	<path clip-path="url(#SVGID_2_)" fill-rule="evenodd" clip-rule="evenodd" fill="#FFFFFF" d="M303,113.6c-1.4,0.2-1.8-0.1-2.1-1.4
		C302.2,111.8,303,112.3,303,113.6"/>
	<path clip-path="url(#SVGID_2_)" fill-rule="evenodd" clip-rule="evenodd" fill="#FFFFFF" d="M258.6,55.1c1.8-0.1,2.2,0.4,1.4,2.1
		C259.5,56.5,259.1,55.9,258.6,55.1"/>
	<path clip-path="url(#SVGID_2_)" fill-rule="evenodd" clip-rule="evenodd" fill="#FFFFFF" d="M311.5,85c0.7,0.2,1.3,0.3,2,0.5
		c0,0.1,0,0.2,0.1,0.3c-0.6,0.2-1.2,0.4-2,0.7V85C312.1,85.1,311.5,85.5,311.5,85C312.1,85.1,311.5,85.5,311.5,85"/>
	<path clip-path="url(#SVGID_2_)" fill-rule="evenodd" clip-rule="evenodd" fill="#FFFFFF" d="M246.9,82.5c-0.8-0.8-1.1-1.5-0.3-2.3
		c0.2-0.3,0.7-0.3,1.1-0.3C246.5,80.5,247.4,81.6,246.9,82.5C246.1,81.7,247.4,81.6,246.9,82.5C246.1,81.7,247.4,81.6,246.9,82.5"/>
	<path clip-path="url(#SVGID_2_)" fill-rule="evenodd" clip-rule="evenodd" fill="#FFFFFF" d="M262.8,122c0.8,0.4,1.3,0.7,1.9,1
		c0,0.1,0,0.2,0,0.3c-0.5,0.1-1.1,0.2-1.8,0.3C262.8,123.1,262.8,122.7,262.8,122C263.5,122.4,262.8,122.7,262.8,122
		C263.5,122.4,262.8,122.7,262.8,122"/>
	<path clip-path="url(#SVGID_2_)" fill-rule="evenodd" clip-rule="evenodd" fill="#FFFFFF" d="M257.2,57c-0.4-0.6-0.8-1.1-1.3-1.7
		C257.4,54.9,257.5,55.1,257.2,57"/>
	<path clip-path="url(#SVGID_2_)" fill-rule="evenodd" clip-rule="evenodd" fill="#FFFFFF" d="M314.8,82.3c-0.2,0.3-3,1.9-2.2,0
		H314.8C314.1,82.6,314.1,82.6,314.8,82.3C313.8,83.5,313.8,82.3,314.8,82.3"/>
	<path clip-path="url(#SVGID_2_)" fill-rule="evenodd" clip-rule="evenodd" fill="#FFFFFF" d="M274.1,46.8c-0.5-0.6-1.1-1.2-1.6-1.8
		c0.1-0.1,0.3-0.2,0.4-0.3c0.5,0.6,1.1,1.2,1.6,1.8C274.4,46.6,274.2,46.7,274.1,46.8C273.6,46.2,274.2,46.7,274.1,46.8
		C273.6,46.2,274.2,46.7,274.1,46.8"/>
	<path clip-path="url(#SVGID_2_)" fill-rule="evenodd" clip-rule="evenodd" fill="#FFFFFF" d="M286.6,48.8c0.3,0.5,0.6,0.9,0.9,1.5
		h-1.6C286.1,49.8,286.3,49.4,286.6,48.8C286.9,49.3,286.3,49.4,286.6,48.8C286.9,49.3,286.3,49.4,286.6,48.8"/>
	<polygon clip-path="url(#SVGID_2_)" points="137.4,151.6 151.5,151.6 151.5,154.1 140.1,154.1 140.1,161.7 150.7,161.7 
		150.7,164.2 140.1,164.2 140.1,174.4 137.4,174.4 	"/>
	<path clip-path="url(#SVGID_2_)" d="M187.5,151.6h5.8c4.4,0,9.1,0.6,9.1,6.3c0,3.3-2.2,5.5-5.7,6l6.5,10.5h-3.3l-6.2-10.2h-3.5
		v10.2h-2.7V151.6z M190.2,161.7h2.4c3,0,6.9,0,6.9-3.8c0-3.3-2.9-3.8-5.5-3.8h-3.8V161.7z"/>
	<path clip-path="url(#SVGID_2_)" d="M246.7,151.6h2.5l9.7,22.8h-3.2l-2.3-5.6h-11.4l-2.3,5.6h-3.1L246.7,151.6z M247.9,155.1
		L247.9,155.1l-4.8,11.2h9.3L247.9,155.1z"/>
	<polygon clip-path="url(#SVGID_2_)" points="294.2,151.6 297.6,151.6 310.8,170.6 310.8,170.6 310.8,151.6 313.5,151.6 
		313.5,174.4 310.1,174.4 296.9,155.5 296.9,155.5 296.9,174.4 294.2,174.4 	"/>
	<path clip-path="url(#SVGID_2_)" d="M367.3,156.3c-1.4-1.8-3.5-2.8-5.7-2.8c-5.1,0-8.7,4.5-8.7,9.5c0,5.3,3.6,9.5,8.7,9.5
		c2.8,0,5-1.1,6.6-3.2l2,1.7c-2,2.7-5,4-8.6,4c-6.5,0-11.6-5.1-11.6-12c0-6.7,4.8-12,11.6-12c3.1,0,6.1,1.1,8,3.6L367.3,156.3z"/>
	<polygon clip-path="url(#SVGID_2_)" points="406.2,151.6 420.5,151.6 420.5,154.1 408.9,154.1 408.9,161.3 419.8,161.3 
		419.8,163.8 408.9,163.8 408.9,171.9 421.1,171.9 421.1,174.4 406.2,174.4 	"/>
</g>
</svg>
