<?xml version="1.0" encoding="utf-8"?>
<!-- Generator: Adobe Illustrator 16.0.0, SVG Export Plug-In . SVG Version: 6.00 Build 0)  -->
<!DOCTYPE svg PUBLIC "-//W3C//DTD SVG 1.1//EN" "http://www.w3.org/Graphics/SVG/1.1/DTD/svg11.dtd">
<svg version="1.1" id="Calque_1" xmlns="http://www.w3.org/2000/svg" xmlns:xlink="http://www.w3.org/1999/xlink" x="0px" y="0px"
	 width="640px" height="176px" viewBox="0 0 640 176" enable-background="new 0 0 640 176" xml:space="preserve">
<linearGradient id="SVGID_1_" gradientUnits="userSpaceOnUse" x1="351.375" y1="83.5" x2="603.167" y2="83.5">
	<stop  offset="0" style="stop-color:#7CA7C9"/>
	<stop  offset="0.2" style="stop-color:#91BEDD"/>
	<stop  offset="0.4" style="stop-color:#9FCEE8"/>
	<stop  offset="0.6" style="stop-color:#AEDCF4"/>
	<stop  offset="0.85" style="stop-color:#A4D2EC"/>
	<stop  offset="1" style="stop-color:#87B4D3"/>
</linearGradient>
<rect x="351.375" y="29.833" fill="url(#SVGID_1_)" width="251.792" height="107.333"/>
<g id="_x23_000059ff">
	<path fill="#000059" d="M0,0h640v176H0V0 M432.641,31.844c0.007,33.797,0.007,67.891,0.007,101.484l-0.002,0.431h10.214
		c0-4.016,0.011-8.228,0.04-12.181c0.073-30.109-0.069-59.784,0.001-89.704C439.48,31.834,436.061,31.844,432.641,31.844
		 M531.625,31.818c-0.05,22.06-0.025,44.142-0.035,66.202c-0.09,5.66,1.17,11.271,3.38,16.471c3.61,7.5,9.69,13.939,17.351,17.33
		c6.67,3.08,14.3,3.539,21.47,2.26c10.27-2.02,19.01-9.37,23.78-18.551c4.39-8.729,5.069-19.1,2.58-28.489
		c-2.33-8.79-8.37-16.35-16.051-21.11c-3.939-1.93-8.12-3.86-12.55-4.01c-11.279-2.17-22.85,3.09-29.62,12.14
		c-0.01-14.08,0.051-28.162-0.02-42.242H531.625 M54.3,68.29c-6.17,5.25-8.29,14.44-5.49,21.97c1.75,4.59,5.88,7.811,10.28,9.69
		c6.67,2.76,13.64,4.771,20.28,7.6c2.93,1.22,5.75,3.921,5.25,7.38c-0.14,4.301-4.76,6.381-8.49,6.7
		c-8.86,0.75-17.34-3.56-23.97-9.12c-2.68,3.93-5.12,8.01-7.62,12.061c8.62,6.709,19.53,10.699,30.52,10.16
		c6.55-0.301,13.36-1.951,18.5-6.211c6.16-4.99,8.97-13.77,6.85-21.399c-1.32-4.89-5.18-8.681-9.57-10.97
		c-6.91-3.561-14.47-5.551-21.71-8.3c-2.83-0.99-5.85-3.63-4.91-6.97c0.69-4.1,5.12-6.02,8.86-6.25c7.3-0.43,14.5,2.24,20.5,6.27
		c2.14-3.78,4.37-7.51,6.34-11.39c-7.33-4.98-16.01-8.11-24.94-8.01C67.66,61.64,59.91,63.28,54.3,68.29 M118.02,73.01
		c-11.84,13.4-12.43,35.37-1.42,49.429c6.5,8.23,17.1,12.531,27.46,12.32c10.42-0.09,21.21-3.55,28.64-11.109
		c-2.93-3.551-5.87-7.101-8.75-10.7c-6.25,5.409-14.79,8.8-23.07,6.739c-7.2-1.209-13.05-7.1-14.46-14.229
		c16.49-0.09,32.98,0.021,49.47-0.04c0.3-0.07,0.9-0.189,1.2-0.26c0.97-13.12-2.18-27.76-12.71-36.54
		C151.02,57.47,129.19,59.84,118.02,73.01 M199.19,72.17c-8.57,8.09-11.38,20.391-11.29,31.801c0.05,9.909-0.09,19.829,0.08,29.739
		c5.63,0.021,11.26,0.021,16.89-0.01c-0.08-10.229-0.01-20.47-0.04-30.71c0.06-6.881,2.04-14.17,7.25-18.95
		c5.33-4.93,12.87-6.44,19.92-6.44c0.17-5.39,0.03-10.77,0.04-16.15C220.42,61.54,207.9,63.88,199.19,72.17 M288.31,66.26
		c-20.43,11.77-23.35,43.79-6.3,59.69c14.58,13.19,39.11,11.069,52.92-2.21c-2.91-3.641-5.899-7.211-8.85-10.82
		c-6,5.25-14.19,8.641-22.23,6.891c-7.55-0.961-14.28-7.101-15.11-14.801c16.85-0.02,33.71,0,50.56-0.01
		c1-13.79-2.7-29.41-14.569-37.78C314.19,59.79,299.3,59.71,288.31,66.26 M368.57,67.39l-0.061,0.23
		c-12.199,7.75-17.99,23.53-15.32,37.521c2.311,14.049,13.881,26.539,28.08,28.709c4.601,1.301,9.48,1.021,14.15,0.351
		c8.61-1.261,15.971-6.729,21.61-13.11c-2.25-1.98-4.47-4.01-6.64-6.09c-4.36,4.23-9.271,8.33-15.311,9.811
		c-3.23,0.92-6.59,0.449-9.891,0.649c-5.22-1.31-10.439-3.45-14.14-7.489c-10.2-10.291-10.42-28.15-1.13-39.101
		c3.66-4.04,8.5-6.76,13.76-8.11c4-0.3,8.131-0.54,12,0.74c5.5,1.75,9.78,5.81,13.95,9.62c2.261-2.48,4.54-4.94,6.87-7.36
		c-4.15-4.06-8.7-7.96-14.26-9.9c-6.301-2.25-13.26-3.1-19.85-1.72C377.391,62.43,372.79,64.86,368.57,67.39 M242.78,62.68
		c-0.1,23.7-0.1,47.4,0,71.099c5.61-0.109,11.22-0.02,16.84-0.059c-0.06-23.681,0.01-47.371-0.04-71.051
		C253.98,62.7,248.38,62.68,242.78,62.68 M458.75,62.63c0,13.906-0.05,27.47,0,41.37c0,8.938,2.76,18.67,9.89,24.311
		c7.46,6.209,18.011,7.81,27.25,5.379c9.141-2.369,16.84-9.719,19.25-18.91c1.431-5.979,1.11-12.467,1.142-18.373
		c0.071-10.969,0.041-33.776,0-33.781l0,0L505.56,62.63c-0.069,14.808-0.08,44.3-0.08,44.3c-0.069,6.5-3.709,13.1-9.77,15.801
		c-6.83,3.08-15.74,2.16-21.17-3.23c-2.59-2.4-3.89-5.73-4.96-9c-0.204-15.917-0.345-32.166-0.32-47.86L458.75,62.63z"/>
	<path fill="#000059" d="M551.39,77.34c5.42-5.34,13.431-6.87,20.75-5.61c2.5,1.14,5.061,2.16,7.391,3.64
		c7.439,5.36,11.689,14.55,11.13,23.69c0.08,11.06-7.3,21.879-18,25.129c-5.14,1.101-10.71,0.99-15.48-1.379
		c-6.45-3.25-11.25-9.271-13.569-16.051C540.54,96.52,543.16,84.46,551.39,77.34z"/>
	<path fill="#000059" d="M132.93,79.87c6.22-5.3,16.68-5.16,22.29,0.98c2.88,2.93,4.24,6.94,4.85,10.929
		c-11.29,0.091-22.58,0.131-33.86-0.02C127.23,87.25,129.21,82.79,132.93,79.87z"/>
	<path fill="#000059" d="M293.94,80.95c5.85-6.09,16.7-6.61,22.85-0.69c3.23,2.99,4.771,7.29,5.479,11.54
		c-11.26,0.04-22.52,0.03-33.779,0C289.32,87.8,290.91,83.81,293.94,80.95z"/>
</g>
<g id="_x23_ffffffff">
	<path fill="#FFFFFF" d="M54.3,68.29c5.61-5.01,13.36-6.65,20.68-6.79c8.93-0.1,17.61,3.03,24.94,8.01
		c-1.97,3.88-4.2,7.61-6.34,11.39c-6-4.03-13.2-6.7-20.5-6.27c-3.74,0.23-8.17,2.15-8.86,6.25c-0.94,3.34,2.08,5.98,4.91,6.97
		c7.24,2.75,14.8,4.74,21.71,8.3c4.39,2.289,8.25,6.08,9.57,10.97c2.12,7.63-0.69,16.409-6.85,21.399
		c-5.14,4.26-11.95,5.91-18.5,6.211c-10.99,0.539-21.9-3.451-30.52-10.16c2.5-4.051,4.94-8.131,7.62-12.061
		c6.63,5.561,15.11,9.87,23.97,9.12c3.73-0.319,8.35-2.399,8.49-6.7c0.5-3.459-2.32-6.16-5.25-7.38
		c-6.64-2.829-13.61-4.84-20.28-7.6c-4.4-1.88-8.53-5.101-10.28-9.69C46.01,82.73,48.13,73.54,54.3,68.29z"/>
	<path fill="#FFFFFF" d="M118.02,73.01c11.17-13.17,33-15.54,46.36-4.39c10.53,8.78,13.68,23.42,12.71,36.54
		c-0.3,0.07-0.9,0.189-1.2,0.26c-16.49,0.061-32.98-0.05-49.47,0.04c1.41,7.13,7.26,13.021,14.46,14.229
		c8.28,2.061,16.82-1.33,23.07-6.739c2.88,3.6,5.82,7.149,8.75,10.7c-7.43,7.56-18.22,11.02-28.64,11.109
		c-10.36,0.211-20.96-4.09-27.46-12.32C105.59,108.38,106.18,86.41,118.02,73.01 M132.93,79.87c-3.72,2.92-5.7,7.38-6.72,11.89
		c11.28,0.15,22.57,0.11,33.86,0.02c-0.61-3.989-1.97-8-4.85-10.929C149.61,74.71,139.15,74.57,132.93,79.87z"/>
	<path fill="#FFFFFF" d="M199.19,72.17c8.71-8.29,21.23-10.63,32.85-10.72c-0.01,5.38,0.13,10.76-0.04,16.15
		c-7.05,0-14.59,1.51-19.92,6.44c-5.21,4.78-7.19,12.069-7.25,18.95c0.03,10.24-0.04,20.48,0.04,30.71
		c-5.63,0.03-11.26,0.03-16.89,0.01c-0.17-9.91-0.03-19.83-0.08-29.739C187.81,92.561,190.62,80.26,199.19,72.17z"/>
	<path fill="#FFFFFF" d="M288.31,66.26c10.99-6.55,25.88-6.47,36.42,0.96C336.6,75.59,340.3,91.21,339.3,105
		c-16.85,0.01-33.71-0.01-50.56,0.01c0.83,7.7,7.56,13.84,15.11,14.801c8.04,1.75,16.23-1.641,22.23-6.891
		c2.95,3.609,5.939,7.18,8.85,10.82c-13.81,13.279-38.34,15.4-52.92,2.21C264.96,110.05,267.88,78.03,288.31,66.26 M293.94,80.95
		c-3.03,2.86-4.62,6.85-5.45,10.85c11.26,0.03,22.52,0.04,33.779,0c-0.709-4.25-2.25-8.55-5.479-11.54
		C310.64,74.34,299.79,74.86,293.94,80.95z"/>
	<path fill="#FFFFFF" d="M242.78,62.68l16.8-0.01c0.05,23.68-0.02,47.37,0.04,71.051l-16.84,0.059
		C242.68,110.08,242.68,86.38,242.78,62.68z"/>
</g>
</svg>
